<svg xmlns="http://www.w3.org/2000/svg" style="display:none">
    <symbol id="gift" viewBox="0 0 18 18">
        <path xmlns="http://www.w3.org/2000/svg"
              d="M15.0392 5.00065H12.2076C12.353 4.90571 12.4907 4.7987 12.6194 4.68067C12.8136 4.50063 12.97 4.28085 13.0788 4.03507C13.1877 3.78928 13.2467 3.52278 13.2522 3.25219C13.2606 2.95453 13.2105 2.65822 13.1051 2.3814C12.9996 2.10458 12.8409 1.85309 12.6388 1.64232C12.4367 1.43155 12.1953 1.26595 11.9296 1.15566C11.6638 1.04537 11.3792 0.992711 11.0931 1.00091C10.8331 1.00658 10.5771 1.06798 10.3409 1.18129C10.1048 1.29459 9.89358 1.45737 9.72059 1.65944C9.40269 2.04987 9.15824 2.49909 9 2.98364C8.8421 2.49945 8.59812 2.05049 8.28078 1.66015C8.1077 1.45778 7.89633 1.29477 7.65992 1.18133C7.4235 1.06789 7.16714 1.00647 6.90686 1.00091C6.62068 0.992319 6.33582 1.04466 6.06977 1.15474C5.80371 1.26481 5.56206 1.43028 5.35965 1.64101C5.15723 1.85174 4.99831 2.10329 4.89264 2.38022C4.78696 2.65715 4.73675 2.95363 4.7451 3.25148C4.75054 3.52206 4.80955 3.78857 4.91841 4.03435C5.02728 4.28014 5.18368 4.49991 5.37784 4.67996C5.50646 4.79815 5.64418 4.90517 5.78961 4.99994H2.96078C2.83455 4.99993 2.70956 5.02582 2.59295 5.07612C2.47634 5.12641 2.37039 5.20013 2.28116 5.29306C2.19194 5.38599 2.12118 5.49631 2.07294 5.61771C2.02469 5.73911 1.99991 5.86921 2 6.00058V8.28615C2 8.55135 2.10123 8.80569 2.28141 8.99321C2.46159 9.18074 2.70597 9.28609 2.96078 9.28609H3.09804V14.0001C3.09804 14.2653 3.19926 14.5196 3.37945 14.7071C3.55963 14.8946 3.80401 15 4.05882 15H13.9412C14.196 15 14.4404 14.8946 14.6206 14.7071C14.8007 14.5196 14.902 14.2653 14.902 14.0001V9.28609H15.0392C15.294 9.28609 15.5384 9.18074 15.7186 8.99321C15.8988 8.80569 16 8.55135 16 8.28615V6.00058C16 5.73539 15.8988 5.48105 15.7186 5.29352C15.5384 5.106 15.294 5.00065 15.0392 5.00065ZM9.53324 4.21499C9.68765 3.34933 9.9649 2.66152 10.3355 2.22583C10.4347 2.11192 10.5553 2.02048 10.6899 1.9572C10.8245 1.89392 10.9702 1.86015 11.1178 1.858H11.1556C11.3263 1.85802 11.4953 1.89369 11.6526 1.96289C11.8098 2.03209 11.9521 2.13343 12.0711 2.26089C12.1901 2.38836 12.2832 2.53937 12.3451 2.70498C12.407 2.87059 12.4363 3.04743 12.4314 3.22505C12.429 3.37891 12.3963 3.53061 12.3351 3.6707C12.2739 3.81079 12.1857 3.93626 12.0759 4.03928C11.3402 4.71495 10.0925 4.91708 9.4351 4.97565C9.45226 4.76924 9.48039 4.5064 9.53324 4.21499ZM5.94265 2.24726C6.18218 1.99887 6.50627 1.85897 6.84441 1.858H6.88216C7.02999 1.86042 7.17575 1.89452 7.31036 1.95818C7.44496 2.02183 7.56552 2.11368 7.66451 2.22797C8.31373 2.99364 8.50794 4.29212 8.56422 4.97637C8.36588 4.95851 8.11333 4.9278 7.83608 4.87423C7.00431 4.71495 6.34343 4.42497 5.9248 4.03857C5.81481 3.9358 5.7264 3.8105 5.66511 3.67051C5.60382 3.53052 5.57097 3.37887 5.56863 3.22505C5.56389 3.04418 5.59461 2.86419 5.65892 2.69608C5.72322 2.52797 5.81976 2.37526 5.94265 2.24726ZM2.82353 8.28615V6.00058C2.82353 5.9627 2.83799 5.92637 2.86373 5.89958C2.88947 5.87279 2.92438 5.85774 2.96078 5.85774H8.58824V8.429H2.96078C2.92438 8.429 2.88947 8.41395 2.86373 8.38716C2.83799 8.36037 2.82353 8.32404 2.82353 8.28615ZM3.92157 14.0001V9.28609H8.58824V14.1429H4.05882C4.02242 14.1429 3.98751 14.1279 3.96177 14.1011C3.93603 14.0743 3.92157 14.038 3.92157 14.0001ZM14.0784 14.0001C14.0784 14.038 14.064 14.0743 14.0382 14.1011C14.0125 14.1279 13.9776 14.1429 13.9412 14.1429H9.41177V9.28609H14.0784V14.0001ZM15.1765 8.28615C15.1765 8.32404 15.162 8.36037 15.1363 8.38716C15.1105 8.41395 15.0756 8.429 15.0392 8.429H9.41177V5.85774H15.0392C15.0756 5.85774 15.1105 5.87279 15.1363 5.89958C15.162 5.92637 15.1765 5.9627 15.1765 6.00058V8.28615Z"
              fill="white"/>
    </symbol>
    <symbol id="shield-check" viewBox="0 0 16 16">

        <path d="M10.8652 6.7785C10.9539 6.69075 11.0022 6.57468 10.9999 6.45475C10.9976 6.33482 10.9449 6.2204 10.8529 6.13559C10.761 6.05077 10.6368 6.00219 10.5068 6.00007C10.3767 5.99796 10.2508 6.04247 10.1556 6.12424L7.16319 8.88323L5.84437 7.6673C5.74919 7.58553 5.62331 7.54102 5.49323 7.54313C5.36316 7.54525 5.23905 7.59383 5.14706 7.67865C5.05507 7.76346 5.00237 7.87788 5.00008 7.99781C4.99778 8.11774 5.04607 8.2338 5.13475 8.32156L6.80838 9.86462C6.90252 9.95131 7.03013 10 7.16319 10C7.29624 10 7.42385 9.95131 7.518 9.86462L10.8652 6.7785Z"
              fill="white"/>
        <path d="M7.851 0.0572875L13.2135 1.8496C13.442 1.92602 13.6412 2.07505 13.7825 2.27534C13.9238 2.47562 13.9999 2.71688 14 2.96452V6.33072C14 10.4782 11.5489 13.5027 7.88935 14.9271C7.63834 15.0243 7.36166 15.0243 7.11065 14.9271C3.4505 13.5033 1 10.4782 1 6.33072V2.96452C1 2.45664 1.31785 2.00639 1.7865 1.8496L7.149 0.0572875C7.37713 -0.0190958 7.62287 -0.0190958 7.851 0.0572875ZM7.44995 1.01274L2.08745 2.80573C2.05481 2.81651 2.02633 2.8377 2.00612 2.86624C1.98591 2.89477 1.97502 2.92919 1.975 2.96452V6.33072C1.975 9.98905 4.107 12.6846 7.4545 13.9864C7.48383 13.9978 7.51617 13.9978 7.5455 13.9864C10.893 12.6846 13.025 9.98973 13.025 6.33072V2.96452C13.0249 2.92921 13.0139 2.89485 12.9938 2.86633C12.9736 2.83781 12.9451 2.8166 12.9125 2.80573L7.55005 1.01274C7.51749 1.00202 7.48251 1.00202 7.44995 1.01274Z"
              fill="white"/>

    </symbol>
    <symbol id="wheel" viewBox="0 0 18 18">
        <path d="M10.8789 1.5C10.6376 1.80087 10.439 2.13702 10.292 2.5H7.47461C7.84526 2.91156 8.16529 3.423 8.42773 3.98535C9.09843 5.42251 9.5 7.37269 9.5 9.5C9.5 11.6273 9.09843 13.5775 8.42773 15.0146C8.16529 15.577 7.84526 16.0884 7.47461 16.5H12.5C13.1567 16.5 13.9064 15.9097 14.5215 14.5918C15.1176 13.3145 15.5 11.5149 15.5 9.5C15.5 8.89299 15.4642 8.30564 15.3994 7.74609C15.7381 7.61951 16.0547 7.44886 16.3428 7.24023C16.4449 7.95837 16.5 8.71715 16.5 9.5C16.5 11.6273 16.0984 13.5775 15.4277 15.0146C14.8638 16.2231 14.0386 17.1989 13 17.4404V17.5H5.5C4.22397 17.5 3.22403 16.4112 2.57227 15.0146C1.90157 13.5775 1.5 11.6273 1.5 9.5C1.5 7.37269 1.90157 5.42251 2.57227 3.98535C3.22402 2.5888 4.22396 1.5 5.5 1.5H10.8789ZM5.5 2.5C4.84328 2.5 4.09357 3.09032 3.47852 4.4082C2.88242 5.68548 2.5 7.48511 2.5 9.5C2.5 11.5149 2.88242 13.3145 3.47852 14.5918C4.09357 15.9097 4.84327 16.5 5.5 16.5C6.15673 16.5 6.90643 15.9097 7.52148 14.5918C8.11758 13.3145 8.5 11.5149 8.5 9.5C8.5 7.48511 8.11758 5.68548 7.52148 4.4082C6.90643 3.09032 6.15672 2.5 5.5 2.5ZM6.14258 4.5C6.5824 4.5 6.86288 4.84066 7.0166 5.09668C7.189 5.38398 7.3267 5.76684 7.43555 6.19531C7.65522 7.06032 7.78613 8.22841 7.78613 9.5C7.78613 10.7716 7.65522 11.9397 7.43555 12.8047C7.3267 13.2332 7.189 13.616 7.0166 13.9033C6.86288 14.1593 6.5824 14.5 6.14258 14.5C5.70292 14.4999 5.42322 14.1593 5.26953 13.9033C5.09708 13.616 4.95945 13.2333 4.85059 12.8047C4.6309 11.9397 4.5 10.7716 4.5 9.5C4.5 8.22837 4.6309 7.06033 4.85059 6.19531C4.95945 5.76675 5.09708 5.384 5.26953 5.09668C5.42322 4.84072 5.70292 4.50014 6.14258 4.5ZM6.12695 5.61133C6.02609 5.77938 5.91725 6.05596 5.81934 6.44141C5.62542 7.20496 5.5 8.28651 5.5 9.5C5.5 10.7135 5.62542 11.795 5.81934 12.5586C5.91725 12.944 6.02609 13.2206 6.12695 13.3887C6.13186 13.3968 6.13801 13.4039 6.14258 13.4111C6.1472 13.4038 6.15421 13.3969 6.15918 13.3887C6.26001 13.2206 6.36794 12.9439 6.46582 12.5586C6.65975 11.795 6.78613 10.7136 6.78613 9.5C6.78613 8.28644 6.65975 7.20497 6.46582 6.44141C6.36794 6.0561 6.26001 5.7794 6.15918 5.61133C6.15406 5.6028 6.14734 5.5954 6.14258 5.58789C6.13787 5.59533 6.13202 5.60289 6.12695 5.61133Z"
              fill="white"/>
        <path d="M16.9854 4.6903C16.9932 4.72217 16.9947 4.7553 16.9897 4.78776C16.9848 4.82023 16.9735 4.85136 16.9565 4.87946C16.9395 4.90756 16.9172 4.93202 16.8907 4.95146C16.8643 4.97089 16.8343 4.98496 16.8025 4.99279L16.0335 5.18028L16.2351 5.93368C16.2436 5.96538 16.2458 5.99848 16.2415 6.03104C16.2372 6.06361 16.2265 6.09501 16.2101 6.12344C16.1937 6.15187 16.1719 6.1768 16.1459 6.1968C16.1198 6.21677 16.0901 6.23143 16.0584 6.2399C16.0374 6.24597 16.0157 6.24933 15.9938 6.2499C15.9389 6.24987 15.8856 6.23167 15.842 6.19817C15.7984 6.16467 15.7671 6.11774 15.7529 6.06461L15.512 5.16465L14.2461 4.43311V5.89648L14.9221 6.57302C14.9453 6.59625 14.9637 6.62382 14.9763 6.65418C14.9888 6.68451 14.9953 6.71705 14.9953 6.74988C14.9953 6.78274 14.9888 6.81527 14.9763 6.84561C14.9637 6.87594 14.9453 6.90354 14.9221 6.92677C14.8989 6.94997 14.8714 6.9684 14.8411 6.98097C14.8108 6.99353 14.7783 7 14.7455 7C14.7127 7 14.6802 6.99353 14.6499 6.98097C14.6196 6.9684 14.592 6.94997 14.5688 6.92677L13.9965 6.35333L13.4241 6.92677C13.4009 6.94997 13.3733 6.9684 13.343 6.98097C13.3127 6.99353 13.2802 7 13.2474 7C13.2146 7 13.1821 6.99353 13.1518 6.98097C13.1215 6.9684 13.094 6.94997 13.0708 6.92677C13.0476 6.90354 13.0292 6.87594 13.0166 6.84561C13.0041 6.81527 12.9976 6.78274 12.9976 6.74988C12.9976 6.71705 13.0041 6.68451 13.0166 6.65418C13.0292 6.62382 13.0476 6.59625 13.0708 6.57302L13.7468 5.89648V4.43311L12.4812 5.16465L12.2403 6.06461C12.2261 6.11777 12.1947 6.16477 12.1511 6.19827C12.1075 6.23177 12.054 6.24993 11.9991 6.2499C11.9772 6.24987 11.9553 6.24703 11.9341 6.24147C11.9025 6.233 11.8728 6.21833 11.8467 6.19834C11.8207 6.17837 11.7989 6.15344 11.7824 6.12501C11.766 6.09657 11.7554 6.06517 11.7511 6.03261C11.7468 6.00004 11.749 5.96695 11.7575 5.93525L11.9591 5.18185L11.1901 4.99435C11.1258 4.97852 11.0704 4.93776 11.0361 4.88103C11.0018 4.8243 10.9914 4.75623 11.0072 4.69187C11.023 4.62747 11.0637 4.57197 11.1204 4.53764C11.1771 4.50331 11.245 4.49291 11.3093 4.50874L12.2284 4.73467L13.4971 4L12.2288 3.26693L11.3096 3.49285C11.2902 3.49769 11.2701 3.50009 11.25 3.50002C11.189 3.50009 11.13 3.47772 11.0843 3.43719C11.0386 3.39666 11.0094 3.34079 11.002 3.2801C10.9947 3.21943 11.0098 3.15814 11.0445 3.10787C11.0792 3.05757 11.1311 3.02177 11.1904 3.00724L11.9594 2.81975L11.7578 2.06478C11.7407 2.00072 11.7497 1.93246 11.7828 1.87503C11.8159 1.8176 11.8705 1.7757 11.9344 1.75854C11.9984 1.74139 12.0666 1.75038 12.124 1.78355C12.1813 1.81672 12.2232 1.87135 12.2403 1.93541L12.4812 2.83537L13.7468 3.56692V2.10353L13.0708 1.42699C13.0239 1.38009 12.9976 1.31647 12.9976 1.25013C12.9976 1.21728 13.0041 1.18476 13.0166 1.15441C13.0292 1.12406 13.0476 1.09649 13.0708 1.07326C13.094 1.05003 13.1215 1.03161 13.1518 1.01904C13.1821 1.00647 13.2146 1 13.2474 1C13.3137 1 13.3772 1.02635 13.4241 1.07326L13.9965 1.64667L14.5688 1.07326C14.6157 1.02635 14.6792 1 14.7455 1C14.8117 1 14.8753 1.02635 14.9221 1.07326C14.969 1.12017 14.9953 1.18379 14.9953 1.25013C14.9953 1.31647 14.969 1.38009 14.9221 1.42699L14.2461 2.10353V3.56692L15.5116 2.83537L15.7526 1.93541C15.7697 1.87135 15.8116 1.81672 15.8689 1.78355C15.9263 1.75038 15.9945 1.74139 16.0584 1.75854C16.1224 1.7757 16.177 1.8176 16.2101 1.87503C16.2433 1.93246 16.2522 2.00072 16.2351 2.06478L16.0335 2.81818L16.8025 3.00568C16.8634 3.01871 16.9173 3.05411 16.9535 3.10487C16.9897 3.15567 17.0057 3.21817 16.9982 3.28013C16.9907 3.34206 16.9604 3.39899 16.9131 3.43969C16.8659 3.48035 16.8052 3.50189 16.7429 3.50002C16.7228 3.50009 16.7028 3.49769 16.6832 3.49285L15.7641 3.26693L14.4958 4L15.7641 4.7331L16.6832 4.50718C16.7151 4.49934 16.7482 4.49784 16.7806 4.50281C16.813 4.50778 16.8441 4.51908 16.8722 4.53607C16.9003 4.55307 16.9247 4.57544 16.9441 4.60191C16.9635 4.62837 16.9775 4.6584 16.9854 4.6903Z"
              fill="white"/>
    </symbol>
    <symbol id="label" viewBox="0 0 18 18">

        <g clip-path="url(#clip0_3_1561)">
            <path d="M15.5 6.47363V2.03613L15.4902 1.93164C15.4836 1.89727 15.4733 1.86361 15.46 1.83106C15.4333 1.76614 15.3942 1.70697 15.3447 1.65723C15.2952 1.6075 15.2358 1.56793 15.1709 1.54102C15.106 1.51412 15.0361 1.4999 14.9658 1.5H10.5322C10.5266 1.5 10.5206 1.50194 10.5166 1.50586L1.65625 10.3643C1.55617 10.4653 1.50011 10.6019 1.5 10.7441C1.5 10.8866 1.55604 11.0238 1.65625 11.125L5.87402 15.3428L5.95605 15.4102C6.04407 15.4686 6.14863 15.5 6.25586 15.5C6.39859 15.4999 6.53549 15.4434 6.63672 15.3428L15.4951 6.48731L15.5 6.47363ZM16.5 6.47363C16.5001 6.74337 16.3932 7.00195 16.2031 7.19336L16.2021 7.19531L7.3418 16.0518C7.0532 16.3387 6.66285 16.4999 6.25586 16.5C5.84867 16.5 5.45763 16.3389 5.16895 16.0518L0.948242 11.8311C0.661079 11.5424 0.5 11.1513 0.5 10.7441C0.500113 10.3372 0.661217 9.94672 0.948242 9.6582L9.81055 0.797853L9.8125 0.796876L10.1641 1.15137L10.1973 1.18457L9.8125 0.796876C10.0039 0.606816 10.2625 0.499894 10.5322 0.500001H14.9648C15.1667 0.499771 15.3672 0.538962 15.5537 0.616212C15.7405 0.693581 15.91 0.808008 16.0527 0.951173C16.1954 1.0943 16.308 1.26426 16.3848 1.45117C16.4612 1.63739 16.5006 1.83682 16.5 2.03809V6.47363Z"
                  fill="white"/>
            <path d="M12 5C11.8022 5 11.6089 4.94135 11.4444 4.83147C11.28 4.72159 11.1518 4.56541 11.0761 4.38268C11.0004 4.19996 10.9806 3.99889 11.0192 3.80491C11.0578 3.61093 11.153 3.43275 11.2929 3.29289C11.4327 3.15304 11.6109 3.0578 11.8049 3.01922C11.9989 2.98063 12.2 3.00043 12.3827 3.07612C12.5654 3.15181 12.7216 3.27998 12.8315 3.44443C12.9414 3.60888 13 3.80222 13 4C13 4.26522 12.8946 4.51957 12.7071 4.70711C12.5196 4.89464 12.2652 5 12 5Z"
                  fill="white"/>
            <path d="M16.5 3C16.5 2.72386 16.7239 2.5 17 2.5C17.2761 2.50005 17.5 2.72389 17.5 3V7.4707L17.4971 7.56738C17.4896 7.66379 17.4677 7.75896 17.4326 7.84961C17.3858 7.97049 17.3158 8.08157 17.2256 8.17578L16.8135 7.78125L16.8643 7.83008L17.2256 8.17578L17.2236 8.17773L8.35937 17.3477C8.16743 17.5461 7.85084 17.5513 7.65234 17.3594C7.45393 17.1674 7.44874 16.8508 7.64062 16.6523L16.5 7.4873V3Z"
                  fill="white"/>
        </g>
        <defs>
            <clipPath id="clip0_3_1561">
                <rect width="18" height="18" fill="white"/>
            </clipPath>
        </defs>
    </symbol>
    <symbol id="wallet" viewBox="0 0 19 19">
        <path d="M16.9286 5.4186H4.68367C4.4807 5.4186 4.28604 5.33897 4.14252 5.19723C3.999 5.05549 3.91837 4.86325 3.91837 4.66279C3.91837 4.46234 3.999 4.27009 4.14252 4.12835C4.28604 3.98661 4.4807 3.90698 4.68367 3.90698H15.0918C15.2136 3.90698 15.3304 3.8592 15.4165 3.77415C15.5026 3.68911 15.551 3.57376 15.551 3.45349C15.551 3.33322 15.5026 3.21787 15.4165 3.13282C15.3304 3.04778 15.2136 3 15.0918 3H4.68367C4.23714 3 3.80889 3.17519 3.49314 3.48702C3.17739 3.79885 3 4.22179 3 4.66279V14.3372C3 14.7782 3.17739 15.2011 3.49314 15.513C3.80889 15.8248 4.23714 16 4.68367 16H16.9286C17.2127 16 17.4853 15.8885 17.6862 15.6901C17.8871 15.4916 18 15.2225 18 14.9419V6.47674C18 6.19611 17.8871 5.92697 17.6862 5.72853C17.4853 5.53009 17.2127 5.4186 16.9286 5.4186ZM17.0816 14.9419C17.0816 14.982 17.0655 15.0204 17.0368 15.0487C17.0081 15.0771 16.9692 15.093 16.9286 15.093H4.68367C4.4807 15.093 4.28604 15.0134 4.14252 14.8717C3.999 14.7299 3.91837 14.5377 3.91837 14.3372V6.14343C4.15515 6.26346 4.41753 6.32591 4.68367 6.32558H16.9286C16.9692 6.32558 17.0081 6.34151 17.0368 6.36986C17.0655 6.3982 17.0816 6.43665 17.0816 6.47674V14.9419ZM14.9388 10.407C14.9388 10.5565 14.8939 10.7026 14.8098 10.8269C14.7257 10.9512 14.6062 11.0481 14.4663 11.1053C14.3265 11.1625 14.1726 11.1774 14.0242 11.1483C13.8757 11.1191 13.7393 11.0471 13.6323 10.9414C13.5253 10.8357 13.4524 10.701 13.4229 10.5544C13.3933 10.4078 13.4085 10.2558 13.4664 10.1177C13.5243 9.97963 13.6224 9.86159 13.7483 9.77854C13.8741 9.69549 14.0221 9.65116 14.1735 9.65116C14.3764 9.65116 14.5711 9.73079 14.7146 9.87253C14.8581 10.0143 14.9388 10.2065 14.9388 10.407Z"
              fill="white"/>
    </symbol>
    <symbol id="pencil" viewBox="0 0 16 16" >
        <g clip-path="url(#clip0_3058_25)">
            <path d="M14.1666 3.95459C14.1665 3.39212 13.9433 2.85235 13.5456 2.45459C13.1477 2.05673 12.6072 1.8335 12.0446 1.8335C11.4821 1.83361 10.9423 2.05683 10.5446 2.45459L10.1051 2.89307C10.1278 3.00995 10.1644 3.17004 10.2291 3.35693C10.3738 3.77416 10.6475 4.32246 11.1627 4.8374C11.678 5.35266 12.226 5.62619 12.6432 5.771C12.8285 5.83531 12.9875 5.87221 13.1041 5.89502L13.5456 5.45557C13.9434 5.05771 14.1666 4.51724 14.1666 3.95459ZM4.24575 8.75244C3.95083 9.04788 3.7832 9.21626 3.65786 9.35889L3.5436 9.49658C3.37068 9.71815 3.22223 9.95873 3.10122 10.2124C3.00227 10.4208 2.92615 10.6458 2.75063 11.1724L2.11978 13.0649L2.93325 13.8784L4.82778 13.2476C5.35481 13.0721 5.57923 12.996 5.78774 12.897C6.04123 12.7761 6.28117 12.6283 6.50259 12.4556L6.50356 12.4546C6.68554 12.3126 6.85405 12.1461 7.24673 11.7534L12.2926 6.70654C11.767 6.52104 11.0896 6.1783 10.4557 5.54443C9.82087 4.90995 9.4778 4.23159 9.29263 3.70557L4.24575 8.75244ZM15.1666 3.95459C15.1666 4.78246 14.838 5.57721 14.2526 6.1626L7.95376 12.4604C7.57746 12.8367 7.35967 13.055 7.11782 13.2437C6.90887 13.4067 6.68713 13.5524 6.45474 13.6792L6.21841 13.8003C5.94182 13.9317 5.64979 14.0285 5.14419 14.1968L2.95669 14.9253L2.42251 15.104C2.20984 15.1752 1.98167 15.1856 1.76333 15.1343C1.54483 15.0829 1.3449 14.9717 1.18618 14.813C1.0275 14.6543 0.91626 14.4543 0.864892 14.2358C0.813612 14.0175 0.823928 13.7893 0.895166 13.5767L1.07388 13.0435L1.80239 10.856C1.97058 10.3514 2.06741 10.0584 2.19888 9.78174L2.31899 9.54541C2.44593 9.31276 2.59227 9.09051 2.75552 8.88135C2.94387 8.63992 3.16213 8.42265 3.53774 8.04639L9.83755 1.74756C10.4228 1.16227 11.2169 0.833606 12.0446 0.833496C12.8724 0.833496 13.6672 1.16217 14.2526 1.74756C14.8378 2.33285 15.1665 3.1269 15.1666 3.95459Z" fill="white"/>
        </g>
        <defs>
            <clipPath id="clip0_3058_25">
                <rect width="16" height="16" fill="white"/>
            </clipPath>
        </defs>
    </symbol>
</svg>